<svg width="16" height="11" viewBox="0 0 16 11" fill="none" xmlns="http://www.w3.org/2000/svg">
<path fill-rule="evenodd" clip-rule="evenodd" d="M0.0859375 5.36948C0.0859375 5.22546 0.143147 5.08735 0.244982 4.98551C0.346816 4.88368 0.484934 4.82647 0.628949 4.82647H13.4364L10.0187 1.40984C9.91674 1.30788 9.85946 1.16958 9.85946 1.02539C9.85946 0.881189 9.91674 0.742898 10.0187 0.640935C10.1207 0.538972 10.259 0.481689 10.4032 0.481689C10.5474 0.481689 10.6856 0.538972 10.7876 0.640935L15.1317 4.98503C15.1823 5.03547 15.2224 5.09539 15.2498 5.16136C15.2771 5.22733 15.2912 5.29806 15.2912 5.36948C15.2912 5.44091 15.2771 5.51163 15.2498 5.5776C15.2224 5.64357 15.1823 5.70349 15.1317 5.75393L10.7876 10.098C10.6856 10.2 10.5474 10.2573 10.4032 10.2573C10.259 10.2573 10.1207 10.2 10.0187 10.098C9.91674 9.99606 9.85946 9.85777 9.85946 9.71357C9.85946 9.56938 9.91674 9.43108 10.0187 9.32912L13.4364 5.91249H0.628949C0.484934 5.91249 0.346816 5.85528 0.244982 5.75345C0.143147 5.65161 0.0859375 5.5135 0.0859375 5.36948Z" fill="#000"/>
</svg>
