<svg width="269" height="222" viewBox="0 0 269 222" fill="none" xmlns="http://www.w3.org/2000/svg">
<path d="M268.13 152.268L229.461 7.95228C228.745 5.28025 227.065 3.12598 224.902 1.73826C224.869 1.71509 224.833 1.69429 224.798 1.6714C222.369 0.151876 219.346 -0.405664 216.367 0.392625L8.8008 56.0098C5.82517 56.8071 3.48849 58.7974 2.1437 61.3232C2.12364 61.364 2.10058 61.4039 2.08103 61.4446C0.902533 63.7277 0.525455 66.4325 1.24115 69.1035L39.9103 213.419C40.6264 216.091 42.3068 218.247 44.4706 219.634C44.5006 219.655 44.5332 219.674 44.5642 219.694C46.9946 221.218 50.0212 221.778 53.004 220.978L260.57 165.361C263.55 164.563 265.888 162.569 267.233 160.038C267.251 160.001 267.272 159.966 267.289 159.929C268.468 157.645 268.846 154.94 268.13 152.268ZM79.2296 157.675C76.6439 156.251 73.3928 157.194 71.969 159.78L48.1821 202.983L13.6228 74.0056L92.8232 121.903L80.7644 143.805C79.3405 146.391 80.283 149.642 82.8693 151.066C84.1274 151.758 85.5438 151.891 86.83 151.547C88.1864 151.183 89.3989 150.289 90.13 148.961L101.979 127.44L132.456 145.871C136.146 148.103 140.452 148.723 144.581 147.616C148.71 146.51 152.129 143.82 154.209 140.042L171.387 108.842L250.851 156.898L57.1894 208.789L81.334 164.936C82.7579 162.35 81.8154 159.099 79.2296 157.675ZM144.844 134.886C144.181 136.09 143.105 136.944 141.814 137.29C140.523 137.636 139.165 137.434 137.988 136.723L18.5203 64.4736L212.181 12.5823L144.844 134.886ZM176.548 99.4686L221.189 18.3884L255.75 147.367L176.548 99.4686Z" fill="#3F6347" fill-opacity="0.26"/>
</svg>
