<svg width="34" height="34" viewBox="0 0 34 34" fill="none" xmlns="http://www.w3.org/2000/svg">
<path d="M17 34C26.3739 34 34 26.3739 34 17C34 7.62608 26.3739 0 17 0C7.62608 0 0 7.62608 0 17C0 26.3739 7.62608 34 17 34ZM17 2.4285C25.0346 2.4285 31.5715 8.96536 31.5715 17C31.5715 25.0346 25.0346 31.5715 17 31.5715C8.96536 31.5715 2.4285 25.0346 2.4285 17C2.4285 8.96536 8.96536 2.4285 17 2.4285Z" fill="#F11C1D"/>
<path d="M10.928 24.2858C11.2387 24.2858 11.5495 24.1672 11.7866 23.9299L23.9293 11.7871C24.4038 11.3127 24.4038 10.5443 23.9293 10.0702C23.4551 9.59597 22.6865 9.59571 22.2124 10.0702L10.0696 22.2129C9.59517 22.6873 9.59517 23.4557 10.0696 23.9299C10.3067 24.1672 10.6172 24.2858 10.928 24.2858Z" fill="#F11C1D"/>
<path d="M23.071 24.2857C23.3817 24.2857 23.6922 24.1672 23.9293 23.9298C24.4038 23.4557 24.4038 22.6871 23.9293 22.2129L11.7866 10.0701C11.3121 9.59568 10.5438 9.59568 10.0696 10.0701C9.59543 10.5443 9.59517 11.3129 10.0696 11.7871L22.2124 23.9298C22.4495 24.1672 22.7602 24.2857 23.071 24.2857Z" fill="#F11C1D"/>
</svg>
